<?xml version="1.0" encoding="UTF-8" standalone="no"?>
<!-- Created with Inkscape (http://www.inkscape.org/) -->

<svg
   xmlns:dc="http://purl.org/dc/elements/1.1/"
   xmlns:cc="http://creativecommons.org/ns#"
   xmlns:rdf="http://www.w3.org/1999/02/22-rdf-syntax-ns#"
   xmlns:svg="http://www.w3.org/2000/svg"
   xmlns="http://www.w3.org/2000/svg"
   xmlns:sodipodi="http://sodipodi.sourceforge.net/DTD/sodipodi-0.dtd"
   xmlns:inkscape="http://www.inkscape.org/namespaces/inkscape"
   width="210mm"
   height="70mm"
   viewBox="0 0 210 70"
   version="1.1"
   id="svg3885"
   inkscape:version="0.92.4 (5da689c313, 2019-01-14)"
   sodipodi:docname="Forum-logo.svg">
  <defs
     id="defs3879" />
  <sodipodi:namedview
     id="base"
     pagecolor="#ffffff"
     bordercolor="#666666"
     borderopacity="1.0"
     inkscape:pageopacity="0.0"
     inkscape:pageshadow="2"
     inkscape:zoom="0.35"
     inkscape:cx="400"
     inkscape:cy="560"
     inkscape:document-units="mm"
     inkscape:current-layer="layer1"
     showgrid="false"
     inkscape:window-width="1920"
     inkscape:window-height="1017"
     inkscape:window-x="-8"
     inkscape:window-y="-8"
     inkscape:window-maximized="1" />
  <metadata
     id="metadata3882">
    <rdf:RDF>
      <cc:Work
         rdf:about="">
        <dc:format>image/svg+xml</dc:format>
        <dc:type
           rdf:resource="http://purl.org/dc/dcmitype/StillImage" />
        <dc:title></dc:title>
      </cc:Work>
    </rdf:RDF>
  </metadata>
  <g
     inkscape:label="Layer 1"
     inkscape:groupmode="layer"
     id="layer1"
     transform="translate(0,-227)">
    <text
       y="283.75201"
       x="10.546653"
       style="font-variant:normal;font-weight:bold;font-size:63.35165405px;font-family:Calibri;-inkscape-font-specification:Calibri-Bold;writing-mode:lr-tb;fill:#8fd3fe;fill-opacity:1;fill-rule:nonzero;stroke:none;stroke-width:2.35420513"
       id="text48">
      <tspan
         style="stroke-width:2.35420513"
         x="10.546653 39.625004 68.259995 103.92698 145.29555"
         y="283.75201"
         sodipodi:role="line"
         id="tspan46">F RUM</tspan>
    </text>
    <path
       d="m 53.412226,248.22345 h -2.84698 c 0,-1.57237 1.274608,-2.84691 2.84698,-2.84691 1.572105,0 2.846712,1.27454 2.846712,2.84691 z"
       style="fill:#8fd3fe;fill-opacity:1;fill-rule:evenodd;stroke:none;stroke-width:2.35420513"
       id="path50"
       inkscape:connector-curvature="0" />
    <path
       d="m 51.237385,248.93797 h 4.59119 c 0.77691,0 1.412011,0.6353 1.412011,1.41228 v 0.001 c 0,0.77684 -0.635302,1.41201 -1.412011,1.41201 h -4.59119 c -0.77691,0 -1.412012,-0.6353 -1.412012,-1.41201 v -0.001 c 0,-0.77691 0.635302,-1.41228 1.412012,-1.41228"
       style="fill:#8fd3fe;fill-opacity:1;fill-rule:evenodd;stroke:none;stroke-width:2.35420513"
       id="path52"
       inkscape:connector-curvature="0" />
    <path
       d="m 53.709056,254.50233 c 3.012478,-0.11878 3.876675,-1.74047 3.919985,1.69576 1.235302,0.52186 2.349015,1.27928 3.283215,2.21342 0.935069,0.93486 1.691024,2.04818 2.213613,3.28341 0.521855,1.23504 0.811545,2.59386 0.811545,4.01982 0,5.70444 -4.624623,10.32906 -10.329126,10.32906 -5.704235,0 -10.329058,-4.62462 -10.329058,-10.32906 0,-4.15869 2.494493,-7.90637 6.308306,-9.51665 0.237571,-3.7705 0.752218,-1.56296 4.12152,-1.69576 z"
       style="fill:none;stroke:#8fd3fe;stroke-width:2.82481074;stroke-linecap:butt;stroke-linejoin:miter;stroke-miterlimit:22.92558479;stroke-dasharray:none;stroke-opacity:1"
       id="path54"
       inkscape:connector-curvature="0" />
    <g
       transform="matrix(2.3542052,0,0,-2.3542052,-38.842728,508.89256)"
       id="g56">
      <path
         d="m 38.5753,97.4616 c 0,0.3314 0.2687,0.6001 0.6001,0.6001 0.3313,0 0.6001,-0.2687 0.6001,-0.6001 z m 0,-1.9783 v 1.9783 h 1.2002 v -1.9783 z m 1.2002,0 c 0,-0.3313 -0.2688,-0.6001 -0.6001,-0.6001 -0.3314,0 -0.6001,0.2688 -0.6001,0.6001 z"
         style="fill:#8fd3fe;fill-opacity:1;fill-rule:nonzero;stroke:none"
         id="path58"
         inkscape:connector-curvature="0" />
    </g>
    <g
       transform="matrix(2.3542052,0,0,-2.3542052,-38.842728,508.89256)"
       id="g60">
      <path
         d="m 41.8014,97.9651 c -0.169,0.2849 -0.0751,0.6531 0.2097,0.822 0.2849,0.169 0.6532,0.0751 0.8221,-0.2097 z m 1.0094,-1.7014 -1.0094,1.7014 1.0318,0.6123 1.0094,-1.7014 z m 1.0318,0.6123 c 0.169,-0.2849 0.0751,-0.6531 -0.2097,-0.822 -0.2849,-0.169 -0.6532,-0.0752 -0.8221,0.2097 z"
         style="fill:#8fd3fe;fill-opacity:1;fill-rule:nonzero;stroke:none"
         id="path62"
         inkscape:connector-curvature="0" />
    </g>
    <g
       transform="matrix(2.3542052,0,0,-2.3542052,-38.842728,508.89256)"
       id="g64">
      <path
         d="m 35.714,98.5501 c 0.159,0.2906 0.5238,0.3969 0.8144,0.2379 0.2905,-0.1591 0.3968,-0.5239 0.2378,-0.8144 z m -0.9508,-1.7348 0.9508,1.7348 1.0522,-0.5765 -0.9507,-1.7348 z m 1.0523,-0.5765 c -0.1591,-0.2906 -0.5239,-0.3969 -0.8144,-0.2379 -0.2906,0.1591 -0.3969,0.5239 -0.2379,0.8144 z"
         style="fill:#8fd3fe;fill-opacity:1;fill-rule:nonzero;stroke:none"
         id="path66"
         inkscape:connector-curvature="0" />
    </g>
    <g
       transform="matrix(2.3542052,0,0,-2.3542052,-38.842728,508.89256)"
       id="g68">
      <path
         d="m 33.7652,100.8048 c 0.2766,0.182 0.6488,0.1052 0.8308,-0.1715 0.182,-0.2766 0.1052,-0.6488 -0.1715,-0.8308 z m -1.6526,-1.0871 1.6526,1.0871 0.6593,-1.0023 -1.6526,-1.0871 z m 0.6593,-1.0023 c -0.2767,-0.182 -0.6488,-0.1052 -0.8308,0.1715 -0.182,0.2767 -0.1052,0.6488 0.1715,0.8308 z"
         style="fill:#8fd3fe;fill-opacity:1;fill-rule:nonzero;stroke:none"
         id="path70"
         inkscape:connector-curvature="0" />
    </g>
    <g
       transform="matrix(2.3542052,0,0,-2.3542052,-38.842728,508.89256)"
       id="g72">
      <path
         d="m 44.0354,99.6715 c -0.2778,0.1803 -0.3569,0.5519 -0.1766,0.8297 0.1803,0.2778 0.5519,0.3569 0.8297,0.1766 z m 1.6594,-1.0771 -1.6594,1.0771 0.6531,1.0063 1.6594,-1.0771 z m 0.6531,1.0063 c 0.2778,-0.1803 0.3569,-0.5519 0.1766,-0.8297 -0.1803,-0.2778 -0.5519,-0.3569 -0.8297,-0.1766 z"
         style="fill:#8fd3fe;fill-opacity:1;fill-rule:nonzero;stroke:none"
         id="path74"
         inkscape:connector-curvature="0" />
    </g>
    <path
       d="m 53.541688,235.82433 v 0 c 0.80941,0 1.471405,0.66199 1.471405,1.4714 v 10.46653 h -2.943009 v -10.46653 c 0,-0.80941 0.661995,-1.4714 1.471604,-1.4714"
       style="fill:#8fd3fe;fill-opacity:1;fill-rule:evenodd;stroke:none;stroke-width:2.35420513"
       id="path144"
       inkscape:connector-curvature="0" />
  </g>
</svg>
